<svg height="300px" width="300px" fill="#000000" xmlns="http://www.w3.org/2000/svg" data-name="Layer 1" viewBox="0 0 64 64" x="0px" y="0px"><title>Artboard 1 copy 23</title><path d="M54.99986,10.16755h-46a2.0026,2.0026,0,0,0-2,2v29.9375a2.0026,2.0026,0,0,0,2,2H25.81407l-1.64533,5.95508H22.85728a2.0026,2.0026,0,0,0-2,2v1.77246a2.0026,2.0026,0,0,0,2,2H41.14244a2.0026,2.0026,0,0,0,2-2V52.06013a2.0026,2.0026,0,0,0-2-2H39.831l-1.64533-5.95508H54.99986a2.0026,2.0026,0,0,0,2-2V12.16755A2.0026,2.0026,0,0,0,54.99986,10.16755Zm-46,31.93848-1-.001h1Zm32.14258,9.9541.002,1.77246H22.85728V52.06013h.75891l-.0011.0039H40.38463l-.0011-.0039Zm-3.38587-2H26.24315l1.645-5.95508h8.22338Zm17.24329-7.95508-17.36694-.00037-.00122-.00451H26.368l-.00116.00427-17.368-.00037L8.999,37.42829H35.42857a1,1,0,0,0,0-2H8.99986V12.16755h46V35.42829H53.10728a1,1,0,0,0,0,2h1.89258Z"/><circle cx="31.99998" cy="39.76673" r="1.5"/><path d="M33.9442,30.97321A7.49922,7.49922,0,1,1,39.411,23.75349a1,1,0,0,0,2,0A9.48637,9.48637,0,1,0,34.48326,32.899a.99991.99991,0,0,0-.53906-1.92579Z"/><path d="M47.81041,33.37165l1.77441-.97754a1.83688,1.83688,0,0,0-.31738-3.35547L37.49986,25.2115A1.83723,1.83723,0,0,0,35.18443,27.526l3.82813,11.76758a1.83688,1.83688,0,0,0,3.35546.31738l.97754-1.77441L46.61705,41.108a1.83542,1.83542,0,0,0,2.59765.001l1.86817-1.86817a1.83926,1.83926,0,0,0,0-2.59668Zm.10547,6.207-5.03907-5.03906L40.79771,38.316,37.18638,27.21247,48.2899,30.8238l-3.77637,2.0791L49.55259,37.942Z"/><path d="M35.14634,20.4195l-4.54687,4.5459-1.91992-1.91894a.99989.99989,0,0,0-1.41406,1.41406l2.627,2.626a.99965.99965,0,0,0,1.41406,0l5.25391-5.25293a.9999.9999,0,0,0-1.41407-1.41407Z"/></svg>