<svg height="300px" width="300px" fill="#000000" xmlns:dc="http://purl.org/dc/elements/1.1/" xmlns:cc="http://creativecommons.org/ns#" xmlns:rdf="http://www.w3.org/1999/02/22-rdf-syntax-ns#" xmlns:svg="http://www.w3.org/2000/svg" xmlns="http://www.w3.org/2000/svg" xmlns:sodipodi="http://sodipodi.sourceforge.net/DTD/sodipodi-0.dtd" xmlns:inkscape="http://www.inkscape.org/namespaces/inkscape" viewBox="0 0 32 32" version="1.1" x="0px" y="0px"><g transform="translate(0,-1020.3622)"><path style="color:#000000;font-style:normal;font-variant:normal;font-weight:normal;font-stretch:normal;font-size:medium;line-height:normal;font-family:sans-serif;text-indent:0;text-align:start;text-decoration:none;text-decoration-line:none;text-decoration-style:solid;text-decoration-color:#000000;letter-spacing:normal;word-spacing:normal;text-transform:none;direction:ltr;block-progression:tb;writing-mode:lr-tb;baseline-shift:baseline;text-anchor:start;white-space:normal;clip-rule:nonzero;display:inline;overflow:visible;visibility:visible;opacity:1;isolation:auto;mix-blend-mode:normal;color-interpolation:sRGB;color-interpolation-filters:linearRGB;solid-color:#000000;solid-opacity:1;fill:#000000;fill-opacity:1;fill-rule:nonzero;stroke:none;stroke-width:0.99999982;stroke-linecap:butt;stroke-linejoin:miter;stroke-miterlimit:4;stroke-dasharray:none;stroke-dashoffset:0;stroke-opacity:1;color-rendering:auto;image-rendering:auto;shape-rendering:auto;text-rendering:auto;enable-background:accumulate" d="M 4 4 C 2.9006478 4 2 4.9007 2 6 L 2 20 C 2 21.0993 2.9006478 22 4 22 L 12 22 L 12 25 L 10 25 C 8.9006454 25 8 25.9007 8 27 L 8 28 L 8.5 28 L 24 28 L 24 27 C 24 25.9007 23.099355 25 22 25 L 20 25 L 20 22 L 28 22 C 29.099352 22 30 21.0993 30 20 L 30 6 C 30 4.9007 29.099352 4 28 4 L 4 4 z M 4 5 L 28 5 C 28.562532 5 29 5.4375 29 6 L 29 20 C 29 20.5625 28.562532 21 28 21 L 4 21 C 3.4374682 21 3 20.5625 3 20 L 3 6 C 3 5.4375 3.4374682 5 4 5 z M 4 6 L 4 6.5 L 4 20 L 13.5 20 L 24.5 20 L 28 20 L 28 6 L 4 6 z M 5 7 L 27 7 L 27 19 L 24.5 19 L 13.5 19 L 5 19 L 5 7 z M 6 8 L 6 11 L 7 11 L 7 9 L 9 9 L 9 8 L 6 8 z M 12.986328 8 L 12.986328 9.0703125 C 12.804692 9.1178956 12.634608 9.1893767 12.476562 9.2832031 L 11.71875 8.5253906 L 11.011719 9.2324219 L 11.771484 9.9921875 C 11.678422 10.14956 11.605877 10.31932 11.558594 10.5 L 10.486328 10.5 L 10.486328 11.5 L 11.558594 11.5 C 11.606033 11.680583 11.678313 11.85056 11.771484 12.007812 L 11.011719 12.769531 L 11.71875 13.476562 L 12.480469 12.714844 C 12.637703 12.807821 12.80582 12.880451 12.986328 12.927734 L 12.986328 14 L 13.986328 14 L 13.986328 12.927734 C 14.166836 12.880451 14.334953 12.807821 14.492188 12.714844 L 15.253906 13.476562 L 15.960938 12.769531 L 15.201172 12.007812 C 15.294344 11.85056 15.366623 11.680583 15.414062 11.5 L 16.486328 11.5 L 16.486328 10.5 L 15.414062 10.5 C 15.366779 10.31932 15.294234 10.14956 15.201172 9.9921875 L 15.960938 9.2324219 L 15.253906 8.5253906 L 14.496094 9.2832031 C 14.338048 9.1893767 14.167964 9.1178956 13.986328 9.0703125 L 13.986328 8 L 12.986328 8 z M 23 8 L 23 9 L 25 9 L 25 11 L 26 11 L 26 8 L 23 8 z M 13.486328 10 C 13.757701 10 13.998774 10.105899 14.177734 10.277344 L 14.207031 10.306641 C 14.378512 10.485608 14.486328 10.728598 14.486328 11 C 14.486328 11.274955 14.376669 11.519637 14.201172 11.699219 L 14.185547 11.714844 C 14.005969 11.890323 13.76127 12 13.486328 12 C 13.211386 12 12.966687 11.890323 12.787109 11.714844 L 12.771484 11.699219 C 12.595987 11.519637 12.486328 11.274955 12.486328 11 C 12.486328 10.728598 12.594145 10.485608 12.765625 10.306641 L 12.794922 10.277344 C 12.973882 10.105899 13.214955 10 13.486328 10 z M 18.779297 11.974609 L 18.501953 13.007812 C 18.315203 13.006817 18.133095 13.032784 17.957031 13.082031 L 17.419922 12.152344 L 16.552734 12.652344 L 17.089844 13.582031 C 16.95845 13.710463 16.84479 13.856386 16.751953 14.019531 L 15.71875 13.742188 L 15.458984 14.707031 L 16.494141 14.984375 C 16.493146 15.17177 16.518775 15.354632 16.568359 15.53125 L 15.638672 16.068359 L 16.138672 16.933594 L 17.068359 16.396484 C 17.196411 16.527493 17.341335 16.641679 17.503906 16.734375 L 17.226562 17.769531 L 18.193359 18.027344 L 18.470703 16.992188 C 18.657454 16.993175 18.839561 16.967218 19.015625 16.917969 L 19.552734 17.849609 L 20.419922 17.349609 L 19.882812 16.419922 C 20.013708 16.292032 20.126076 16.144771 20.21875 15.982422 L 21.253906 16.259766 L 21.513672 15.294922 L 20.478516 15.017578 C 20.479649 14.830127 20.453778 14.647395 20.404297 14.470703 L 21.333984 13.933594 L 20.833984 13.068359 L 19.904297 13.605469 C 19.776239 13.474406 19.631351 13.360308 19.46875 13.267578 L 19.746094 12.232422 L 18.779297 11.974609 z M 18.347656 14.007812 C 18.475834 13.990505 18.611956 13.999485 18.746094 14.035156 L 18.748047 14.035156 C 19.00799 14.105305 19.211489 14.268673 19.339844 14.478516 L 19.363281 14.521484 C 19.481259 14.738114 19.523037 14.998848 19.453125 15.259766 L 19.451172 15.263672 C 19.379575 15.526327 19.211832 15.731932 18.998047 15.859375 L 18.974609 15.873047 C 18.756203 15.994983 18.493096 16.037703 18.228516 15.966797 C 17.966253 15.896559 17.759333 15.729659 17.630859 15.517578 L 17.611328 15.482422 C 17.491751 15.265059 17.451175 15.004591 17.521484 14.742188 C 17.591498 14.480887 17.755853 14.275072 17.966797 14.146484 L 18.005859 14.123047 C 18.111009 14.065532 18.226525 14.024168 18.347656 14.007812 z M 6 15 L 6 18 L 9 18 L 9 17 L 7 17 L 7 15 L 6 15 z M 25 15 L 25 17 L 23 17 L 23 18 L 26 18 L 26 15 L 25 15 z M 13 22 L 19 22 L 19 25 L 13 25 L 13 22 z M 10 26 L 22 26 C 22.562655 26 23 26.4374 23 27 L 9 27 C 9 26.4374 9.437345 26 10 26 z " transform="translate(0,1020.3622)"/></g></svg>