<svg height="300px" width="300px" fill="#000000" xmlns="http://www.w3.org/2000/svg" xmlns:xlink="http://www.w3.org/1999/xlink" version="1.1" x="0px" y="0px" viewBox="0 0 98 98" style="enable-background:new 0 0 98 98;" xml:space="preserve"><title>25</title><g><path d="M93,46c1.7,0,3-1.3,3-3s-1.3-3-3-3H80v-6h13c1.7,0,3-1.3,3-3s-1.3-3-3-3H80v-2c0-4.4-3.6-8-8-8h-2V5c0-1.7-1.3-3-3-3   s-3,1.3-3,3v13h-6V5c0-1.7-1.3-3-3-3s-3,1.3-3,3v13h-6V5c0-1.7-1.3-3-3-3s-3,1.3-3,3v13h-6V5c0-1.7-1.3-3-3-3s-3,1.3-3,3v13h-2   c-4.4,0-8,3.6-8,8v2H5c-1.7,0-3,1.3-3,3s1.3,3,3,3h13v6H5c-1.7,0-3,1.3-3,3s1.3,3,3,3h13v6H5c-1.7,0-3,1.3-3,3s1.3,3,3,3h13v6H5   c-1.7,0-3,1.3-3,3s1.3,3,3,3h13v2c0,4.4,3.6,8,8,8h2v13c0,1.7,1.3,3,3,3s3-1.3,3-3V80h6v13c0,1.7,1.3,3,3,3s3-1.3,3-3V80h6v13   c0,1.7,1.3,3,3,3s3-1.3,3-3V80h6v13c0,1.7,1.3,3,3,3s3-1.3,3-3V80h2c4.4,0,8-3.6,8-8v-2h13c1.7,0,3-1.3,3-3s-1.3-3-3-3H80v-6h13   c1.7,0,3-1.3,3-3s-1.3-3-3-3H80v-6H93z M74,72c0,1.1-0.9,2-2,2H26c-1.1,0-2-0.9-2-2V26c0-1.1,0.9-2,2-2h46c1.1,0,2,0.9,2,2V72z"/><path d="M62.2,33c-0.1,0-0.1,0-0.2,0H36c-1.6-0.1-2.9,1.2-3,2.8c0,0.1,0,0.1,0,0.2v26c-0.1,1.6,1.2,2.9,2.8,3c0.1,0,0.1,0,0.2,0h26   c1.6,0.1,2.9-1.2,3-2.8c0-0.1,0-0.1,0-0.2V36C65.1,34.4,63.8,33.1,62.2,33z M59,59H39V39h20V59z"/></g></svg>