<svg height="300px" width="300px" fill="#000000" xmlns="http://www.w3.org/2000/svg" viewBox="0 0 64 64" x="0px" y="0px"><title>search-Browser-folder-file-window-interface</title><g data-name="17-search"><rect x="4" y="11" width="2" height="2"/><rect x="8" y="11" width="2" height="2"/><rect x="12" y="11" width="2" height="2"/><path d="M35.986,44.961a8.128,8.128,0,0,0,1.593,6.058l1.592-1.211a6.184,6.184,0,0,1,1.182-8.664l-1.21-1.592A8.127,8.127,0,0,0,35.986,44.961Z"/><path d="M35.211,37.712a11.991,11.991,0,0,0,13.648,19.3l1.909,1.91a1,1,0,0,0,1.414,0l4.782,4.782a1,1,0,0,0,.707.293H63a1,1,0,0,0,.721-1.692L56.41,54.7l.014-.014a1,1,0,0,0,0-1.414l-1.905-1.906a11.968,11.968,0,0,0-2.337-13.65c-.023-.023-.048-.042-.071-.064A7.98,7.98,0,0,0,41.156,27H27.566l-2.1-3.5a5.064,5.064,0,0,0-4.3-2.444l-9.808-.037h-.02A5.34,5.34,0,0,0,6,26.356V47.4A4.6,4.6,0,0,0,10.6,52H30V50H10.6A2.6,2.6,0,0,1,8,47.4V26.356a3.337,3.337,0,0,1,3.34-3.339h.012l9.807.037a3.053,3.053,0,0,1,2.591,1.473L25.234,27H20.266a7.844,7.844,0,0,0-4.679,1.56L13.4,30.2l1.2,1.6,2.188-1.641A5.835,5.835,0,0,1,20.266,29H41.4A2.6,2.6,0,0,1,44,31.6V32h2v-.4a4.571,4.571,0,0,0-1.712-3.55A5.956,5.956,0,0,1,51,34a5.957,5.957,0,0,1-.487,2.332A12.013,12.013,0,0,0,35.211,37.712ZM58.085,62,53.6,57.511l1.4-1.4L60.653,62ZM54.3,53.975,51.475,56.8l-.835-.836a11.948,11.948,0,0,0,1.542-1.286,12.19,12.19,0,0,0,1.289-1.54ZM53.7,46.2a9.992,9.992,0,1,1-2.929-7.07A9.936,9.936,0,0,1,53.7,46.2Z"/><path d="M56.86,25.064a1,1,0,0,0-.293-.71l-1.921-1.921a1.092,1.092,0,0,0-1.461.046,1.371,1.371,0,0,1-1.654.241,12.954,12.954,0,0,0-3.086-1.292A1.482,1.482,0,0,1,47.359,20a1,1,0,0,0-1-1H43.641a1,1,0,0,0-1,1,1.482,1.482,0,0,1-1.086,1.428,12.94,12.94,0,0,0-3.087,1.293,1.4,1.4,0,0,1-1.7-.292,1,1,0,0,0-1.41,0l-1.921,1.921,1.414,1.415,1.3-1.306a3.355,3.355,0,0,0,3.32-.013,10.961,10.961,0,0,1,2.611-1.093A3.486,3.486,0,0,0,44.494,21h1.012a3.486,3.486,0,0,0,2.411,2.357,10.974,10.974,0,0,1,2.61,1.092,3.338,3.338,0,0,0,3.315.008l.7.7a3.355,3.355,0,0,0,.012,3.32,10.929,10.929,0,0,1,1.094,2.611A3.486,3.486,0,0,0,58,33.494v1.012a3.486,3.486,0,0,0-2.357,2.411,10.991,10.991,0,0,1-1.093,2.61l1.729,1a12.926,12.926,0,0,0,1.293-3.087A1.482,1.482,0,0,1,59,36.358a1,1,0,0,0,1-1V32.642a1,1,0,0,0-1-1,1.482,1.482,0,0,1-1.428-1.086,12.968,12.968,0,0,0-1.293-3.088,1.394,1.394,0,0,1,.284-1.7A.993.993,0,0,0,56.86,25.064Z"/><path d="M59.447,7H4.553A4.558,4.558,0,0,0,0,11.553V52.447A4.558,4.558,0,0,0,4.553,57H33V55H4.553A2.557,2.557,0,0,1,2,52.447V17H52V15H2V11.553A2.557,2.557,0,0,1,4.553,9H59.447A2.557,2.557,0,0,1,62,11.553V15H56v2h6V52.447A2.557,2.557,0,0,1,59.447,55v2A4.558,4.558,0,0,0,64,52.447V11.553A4.558,4.558,0,0,0,59.447,7Z"/></g></svg>