<svg height="300px" width="300px" fill="#000000" xmlns="http://www.w3.org/2000/svg" xmlns:xlink="http://www.w3.org/1999/xlink" viewBox="0 0 46 60" version="1.1" x="0px" y="0px"><title>27 -HDD- (Outline)</title><desc>Created with Sketch.</desc><g stroke="none" stroke-width="1" fill="none" fill-rule="evenodd"><g transform="translate(-847.000000, -571.000000)" fill="#000000"><g transform="translate(847.000000, 571.000000)"><path d="M5,2 C3.346,2 2,3.346 2,5 L2,55 C2,56.654 3.346,58 5,58 L41,58 C42.654,58 44,56.654 44,55 L44,5 C44,3.346 42.654,2 41,2 L5,2 Z M41,60 L5,60 C2.243,60 0,57.757 0,55 L0,5 C0,2.243 2.243,0 5,0 L41,0 C43.757,0 46,2.243 46,5 L46,55 C46,57.757 43.757,60 41,60 L41,60 Z"/><path d="M6,5 C6,4.448 5.553,4 5,4 C4.447,4 4,4.448 4,5 C4,5.552 4.447,6 5,6 C5.553,6 6,5.552 6,5"/><path d="M42,5 C42,4.448 41.553,4 41,4 C40.447,4 40,4.448 40,5 C40,5.552 40.447,6 41,6 C41.553,6 42,5.552 42,5"/><path d="M23,20 C21.346,20 20,21.346 20,23 C20,24.654 21.346,26 23,26 C24.654,26 26,24.654 26,23 C26,21.346 24.654,20 23,20 M23,28 C20.243,28 18,25.757 18,23 C18,20.243 20.243,18 23,18 C25.757,18 28,20.243 28,23 C28,25.757 25.757,28 23,28"/><path d="M21.8877,31.9951 C21.8627,31.9951 21.8357,32.0041 21.8137,32.0211 L7.0687,42.9571 C6.4447,43.4571 6.0457,44.1991 6.0027,44.9691 C5.9707,45.5571 6.1597,46.0881 6.5357,46.4641 C6.9117,46.8391 7.4247,47.0251 8.0317,46.9961 C8.8007,46.9531 9.5417,46.5551 10.0657,45.9021 L22.0047,32.1541 C22.0167,32.1391 22.0127,32.0721 21.9707,32.0291 C21.9487,32.0071 21.9177,31.9951 21.8877,31.9951 M7.8977,49.0001 C6.8287,49.0001 5.8507,48.6061 5.1217,47.8781 C4.3387,47.0941 3.9427,46.0221 4.0067,44.8591 C4.0797,43.5211 4.7507,42.2511 5.8477,41.3731 L20.5937,30.4371 C21.4087,29.7861 22.6197,29.8511 23.3847,30.6151 L23.3857,30.6161 C24.1487,31.3791 24.2147,32.5921 23.5407,33.4341 L11.6007,47.1831 C10.7477,48.2481 9.4787,48.9191 8.1417,48.9931 C8.0597,48.9981 7.9787,49.0001 7.8977,49.0001"/><path d="M9.3291,44.6709 C9.3291,44.1189 8.8821,43.6709 8.3291,43.6709 C7.7771,43.6709 7.3291,44.1189 7.3291,44.6709 C7.3291,45.2229 7.7771,45.6709 8.3291,45.6709 C8.8821,45.6709 9.3291,45.2229 9.3291,44.6709"/><path d="M45,46 L17,46 C15.449,46 13.952,45.646 12.55,44.946 C12.056,44.7 11.854,44.099 12.102,43.605 C12.348,43.112 12.947,42.911 13.442,43.156 C14.564,43.716 15.762,44 17,44 L45,44 C45.553,44 46,44.448 46,45 C46,45.552 45.553,46 45,46"/><path d="M9.0615,41.2358 C8.7045,41.2358 8.3595,41.0448 8.1785,40.7078 C7.5655,39.5608 7.1815,38.2948 7.0505,36.9998 L0.9995,36.9998 C0.4475,36.9998 -0.0005,36.5518 -0.0005,35.9998 C-0.0005,35.4478 0.4475,34.9998 0.9995,34.9998 L7.9995,34.9998 C8.5525,34.9998 8.9995,35.4478 8.9995,35.9998 C8.9995,37.3108 9.3265,38.6118 9.9425,39.7638 C10.2035,40.2508 10.0195,40.8568 9.5325,41.1178 C9.3815,41.1978 9.2205,41.2358 9.0615,41.2358"/><path d="M23,38 C21.78,38 20.524,37.836 19.267,37.514 C18.732,37.376 18.41,36.831 18.547,36.296 C18.685,35.761 19.232,35.441 19.765,35.576 C20.859,35.857 21.947,36 23,36 C30.168,36 36,30.168 36,23 C36,15.832 30.168,10 23,10 C15.832,10 10,15.832 10,23 C10,27.606 12.485,31.912 16.486,34.237 C16.964,34.515 17.126,35.126 16.848,35.604 C16.569,36.082 15.958,36.244 15.48,35.966 C10.866,33.284 8,28.316 8,23 C8,14.729 14.729,8 23,8 C31.271,8 38,14.729 38,23 C38,31.271 31.271,38 23,38"/><path d="M13,24 C12.447,24 12,23.552 12,23 C12,16.935 16.935,12 23,12 C23.553,12 24,12.448 24,13 C24,13.552 23.553,14 23,14 C18.037,14 14,18.038 14,23 C14,23.552 13.553,24 13,24"/><path d="M25,54 L29,54 L29,50 L25,50 L25,54 Z M30,56 L24,56 C23.447,56 23,55.552 23,55 L23,49 C23,48.448 23.447,48 24,48 L30,48 C30.553,48 31,48.448 31,49 L31,55 C31,55.552 30.553,56 30,56 L30,56 Z"/><path d="M35,54 L39,54 L39,50 L35,50 L35,54 Z M40,56 L34,56 C33.447,56 33,55.552 33,55 L33,49 C33,48.448 33.447,48 34,48 L40,48 C40.553,48 41,48.448 41,49 L41,55 C41,55.552 40.553,56 40,56 L40,56 Z"/><path d="M19,51 L14,51 C13.447,51 13,50.552 13,50 C13,49.448 13.447,49 14,49 L19,49 C19.553,49 20,49.448 20,50 C20,50.552 19.553,51 19,51"/><path d="M19,55 L14,55 C13.447,55 13,54.552 13,54 C13,53.448 13.447,53 14,53 L19,53 C19.553,53 20,53.448 20,54 C20,54.552 19.553,55 19,55"/></g></g></g></svg>