<svg height="300px" width="300px" fill="#000000" xmlns:x="http://ns.adobe.com/Extensibility/1.0/" xmlns:i="http://ns.adobe.com/AdobeIllustrator/10.0/" xmlns:graph="http://ns.adobe.com/Graphs/1.0/" xmlns="http://www.w3.org/2000/svg" xmlns:xlink="http://www.w3.org/1999/xlink" version="1.1" x="0px" y="0px" viewBox="0 0 100 100" enable-background="new 0 0 100 100" xml:space="preserve"><metadata><sfw xmlns="http://ns.adobe.com/SaveForWeb/1.0/"><slices/><sliceSourceBounds width="1449" height="1446.4" y="-1446.7" x="0.5" bottomLeftOrigin="true"/></sfw></metadata><path d="M85.7,45.2c1.4,0,2.5-1.1,2.5-2.5V15.9c0-3.8-3.1-6.9-6.9-6.9H7.6c-3.8,0-6.9,3.1-6.9,6.9v57.2c0,3.8,3.1,6.9,6.9,6.9h42.6  c1.4,0,2.5-1.1,2.5-2.5S51.6,75,50.2,75H7.6c-1,0-1.9-0.8-1.9-1.9V30.5h77.5v12.2C83.2,44.1,84.3,45.2,85.7,45.2z M5.7,25.5v-9.6  c0-1,0.8-1.9,1.9-1.9h73.7c1,0,1.9,0.8,1.9,1.9v9.6H5.7z M77.5,47.3c-12,0-21.8,9.8-21.8,21.8S65.4,91,77.5,91s21.8-9.8,21.8-21.8  S89.5,47.3,77.5,47.3z M77.5,86c-9.3,0-16.8-7.5-16.8-16.8s7.5-16.8,16.8-16.8c9.3,0,16.8,7.5,16.8,16.8S86.7,86,77.5,86z   M85.7,62.9c1,1,1,2.6,0,3.5l-9.1,9.1c-0.5,0.5-1.1,0.7-1.8,0.7c-0.6,0-1.3-0.2-1.8-0.7l-3.8-3.8c-1-1-1-2.6,0-3.5c1-1,2.6-1,3.5,0  l2.1,2.1l7.3-7.3C83.1,61.9,84.7,61.9,85.7,62.9z M23.8,19.8c0,1.6-1.3,2.8-2.8,2.8s-2.8-1.3-2.8-2.8c0-1.6,1.3-2.8,2.8-2.8  S23.8,18.2,23.8,19.8z M33.1,19.8c0,1.6-1.3,2.8-2.8,2.8s-2.8-1.3-2.8-2.8c0-1.6,1.3-2.8,2.8-2.8S33.1,18.2,33.1,19.8z M14.4,19.8  c0,1.6-1.3,2.8-2.8,2.8c-1.6,0-2.8-1.3-2.8-2.8c0-1.6,1.3-2.8,2.8-2.8C13.1,16.9,14.4,18.2,14.4,19.8z"/></svg>