<svg height="300px" width="300px" fill="#000000" xmlns="http://www.w3.org/2000/svg" xmlns:xlink="http://www.w3.org/1999/xlink" version="1.1" x="0px" y="0px" viewBox="0 0 1024 1024" style="enable-background:new 0 0 1024 1024;" xml:space="preserve"><g><g><g><path d="M354,616.8c-20.9,0-41.7,0-62.6,0c5,5,10,10,15,15c0-20.9,0-41.7,0-62.6c-5,5-10,10-15,15     c20.9,0,41.7,0,62.6,0c-5-5-10-10-15-15c0,20.9,0,41.7,0,62.6c0,7.8,6.9,15.4,15,15c8.1-0.4,15-6.6,15-15c0-20.9,0-41.7,0-62.6     c0-8.1-6.9-15-15-15c-20.9,0-41.7,0-62.6,0c-8.1,0-15,6.9-15,15c0,20.9,0,41.7,0,62.6c0,8.1,6.9,15,15,15c20.9,0,41.7,0,62.6,0     c7.8,0,15.4-6.9,15-15C368.7,623.7,362.5,616.8,354,616.8z"/></g></g><g><g><path d="M440.3,615.6c33,0,66,0,98.9,0c52.5,0,105,0,157.4,0c11.9,0,23.9,0,35.8,0c7.8,0,15.4-6.9,15-15     c-0.4-8.1-6.6-15-15-15c-33,0-66,0-98.9,0c-52.5,0-105,0-157.4,0c-11.9,0-23.9,0-35.8,0c-7.8,0-15.4,6.9-15,15     C425.7,608.7,431.9,615.6,440.3,615.6L440.3,615.6z"/></g></g><g><g><path d="M354,800.2c-20.9,0-41.7,0-62.6,0c5,5,10,10,15,15c0-20.9,0-41.7,0-62.6c-5,5-10,10-15,15     c20.9,0,41.7,0,62.6,0c-5-5-10-10-15-15c0,20.9,0,41.7,0,62.6c0,7.8,6.9,15.4,15,15c8.1-0.4,15-6.6,15-15c0-20.9,0-41.7,0-62.6     c0-8.1-6.9-15-15-15c-20.9,0-41.7,0-62.6,0c-8.1,0-15,6.9-15,15c0,20.9,0,41.7,0,62.6c0,8.1,6.9,15,15,15c20.9,0,41.7,0,62.6,0     c7.8,0,15.4-6.9,15-15C368.7,807.1,362.5,800.2,354,800.2z"/></g></g><g><g><path d="M440.3,798.9c33,0,66,0,98.9,0c52.5,0,105,0,157.4,0c11.9,0,23.9,0,35.8,0c7.8,0,15.4-6.9,15-15     c-0.4-8.1-6.6-15-15-15c-33,0-66,0-98.9,0c-52.5,0-105,0-157.4,0c-11.9,0-23.9,0-35.8,0c-7.8,0-15.4,6.9-15,15     C425.7,792,431.9,798.9,440.3,798.9L440.3,798.9z"/></g></g><g><g><path d="M354,433.5c-20.9,0-41.7,0-62.6,0c5,5,10,10,15,15c0-20.9,0-41.7,0-62.6c-5,5-10,10-15,15     c20.9,0,41.7,0,62.6,0c-5-5-10-10-15-15c0,20.9,0,41.7,0,62.6c0,7.8,6.9,15.4,15,15c8.1-0.4,15-6.6,15-15c0-20.9,0-41.7,0-62.6     c0-8.1-6.9-15-15-15c-20.9,0-41.7,0-62.6,0c-8.1,0-15,6.9-15,15c0,20.9,0,41.7,0,62.6c0,8.1,6.9,15,15,15c20.9,0,41.7,0,62.6,0     c7.8,0,15.4-6.9,15-15C368.7,440.4,362.5,433.5,354,433.5z"/></g></g><g><g><path d="M440.3,432.2c33,0,66,0,98.9,0c52.5,0,105,0,157.4,0c11.9,0,23.9,0,35.8,0c7.8,0,15.4-6.9,15-15     c-0.4-8.1-6.6-15-15-15c-33,0-66,0-98.9,0c-52.5,0-105,0-157.4,0c-11.9,0-23.9,0-35.8,0c-7.8,0-15.4,6.9-15,15     C425.7,425.4,431.9,432.2,440.3,432.2L440.3,432.2z"/></g></g><g><g><path d="M684,231.5c41.6,0,83.2,0,124.8,0c3,0,6.1,0,9.1,0c0.6,0,1.2,0,1.9,0c0.1,0,0.2,0,0.2,0     c0.6,0,3,0.2,0-0.2c0.5,0.1,4.8,1.3,3.2,0.7c-2-0.8,1.7,1,1.7,0.9c3.3,1.6-1-1.1,0.5,0.3c0.8,0.7,1.5,1.5,2.2,2.3     c-1.9-2.2-0.2-0.1,0.2,0.6c0.4,0.8,1.2,3.3,0.4,0.5c0.3,1,0.5,2.2,0.8,3.2c0.7,1.9,0.1-3-0.1,0.7c0,0.4,0,0.7,0,1.1     c0,6.8,0,13.7,0,20.5c0,33.9,0,67.8,0,101.7c0,51,0,101.9,0,152.9c0,55,0,110,0,165c0,46.9,0,93.9,0,140.8c0,26.6,0,53.1,0,79.7     c0,1.9-0.1,3.8,0,5.8c0,0.1,0,0.3,0,0.4c0,0,0,0,0,0c0,0.6-0.2,3,0.2,0c-0.1,0.5-1.3,4.8-0.7,3.2c0.8-2-1,1.7-0.9,1.7     c-1.6,3.3,1.1-1-0.3,0.5c-0.7,0.8-1.5,1.5-2.3,2.2c2.2-1.9,0.1-0.2-0.6,0.2c-0.8,0.4-3.3,1.2-0.5,0.4c-1,0.3-2.2,0.5-3.2,0.8     c-1.9,0.7,3.1,0.1-0.7-0.1c-5.1-0.3-10.3,0-15.3,0c-32.9,0-65.8,0-98.7,0c-51.3,0-102.7,0-154,0c-54.6,0-109.1,0-163.7,0     c-43.6,0-87.2,0-130.8,0c-17.8,0-35.6-0.5-53.4,0c-2.8,0.1-0.8,0.1,0,0.2c-1.3-0.2-2.6-0.6-3.8-1c3.5,1.1-3.8-2.9-1.1-0.6     c-0.6-0.6-1.2-1.2-1.8-1.7c-2.5-2.2,0.7,2.1-0.7-1c-0.4-0.8-0.9-1.5-1.2-2.3c1.4,3-0.3-1.8-0.4-2.6c0.4,2.4,0.2,0.3,0.2-0.8     c0-2.1,0-4.2,0-6.3c0-10.1,0-20.3,0-30.4c0-38.7,0-77.4,0-116.1c0-52.8,0-105.6,0-158.5c0-54.3,0-108.6,0-162.9     c0-43.7,0-87.3,0-131c0-20.4-0.2-40.8,0-61.2c0-0.3,0-0.6,0-0.9c-0.1-2.8-0.1-0.8-0.2,0c0.2-1.3,0.6-2.6,1-3.8     c-1.1,3.5,2.9-3.8,0.6-1.1c0.6-0.6,1.2-1.2,1.7-1.8c2.2-2.5-2.1,0.7,1-0.7c0.8-0.4,1.5-0.9,2.3-1.2c-3,1.4,1.8-0.3,2.6-0.4     c-2.3,0.3-0.4,0.2,0.7,0.2c0.9,0,1.8,0,2.7,0c3.3,0,6.7,0,10,0c25.1,0,50.2,0,75.4,0c15.8,0,31.5,0,47.3,0c7.8,0,15.4-6.9,15-15     c-0.4-8.1-6.6-15-15-15c-42,0-83.9,0-125.9,0c-8.5,0-16.8-0.3-24.9,3.1c-14.9,6.2-23.9,20.4-24.2,36.5c-0.1,6.2,0,12.3,0,18.5     c0,33.5,0,66.9,0,100.4c0,51.3,0,102.6,0,153.9c0,56,0,112,0,168c0,47.5,0,95,0,142.5c0,26.3,0,52.5,0,78.8c0,1.7,0,3.5,0,5.2     c0.4,18.7,13.5,35.6,32.3,38.6c6.7,1.1,13.6,0.7,20.4,0.7c32.8,0,65.6,0,98.4,0c51.7,0,103.4,0,155,0c55.5,0,111,0,166.5,0     c43.8,0,87.5,0,131.3,0c12.8,0,25.5,0,38.3,0c7.6,0,15.9,0.7,23.3-1.5c17.1-4.9,28.1-20.5,28.4-38c0-1.9,0-3.8,0-5.6     c0-10,0-20,0-29.9c0-39,0-78.1,0-117.1c0-53.3,0-106.6,0-159.9c0-55.2,0-110.4,0-165.6c0-43.8,0-87.5,0-131.3     c0-19.2,0.4-38.5,0-57.8c-0.4-17.6-12-34.2-29.7-38.2c-6.9-1.6-14.1-1.1-21.1-1.1c-25.3,0-50.6,0-75.9,0c-16.1,0-32.2,0-48.3,0     c-7.8,0-15.4,6.9-15,15C669.4,224.6,675.6,231.5,684,231.5L684,231.5z"/></g></g><g><g><path d="M669,188.1c0,17.5-0.8,35.1,0,52.6c0,0.9-0.2,3.1,0.2,0.4c-0.1,1-1.6,5.5-0.4,2.8c-0.4,1-1,1.9-1.6,2.9     c-1.1,2,2.4-2.1-0.4,0.6c-0.6,0.6-1.2,1.2-1.9,1.9c-2.1,2.1,1.3-0.3-1.2,0.8c0.1,0-3.8,1.7-1.8,0.9c2-0.7-2.2,0.5-2,0.4     c-3.5,1,2.2,0.2-1.5,0.1c-0.2,0-0.4,0-0.6,0c-3.3-0.1-6.6,0-9.9,0c-39.8,0-79.7,0-119.5,0c-45.2,0-90.3,0-135.5,0     c-9,0-18.1-0.2-27.2,0c-3.3,0.1,1.2,0.7-1.7-0.1c-0.9-0.2-1.7-0.5-2.6-0.7c2.7,0.8,0.1-0.1-0.7-0.4c-0.7-0.3-3.1-2-0.8-0.2     c-1-0.8-1.9-1.8-2.8-2.7c-2-2-0.4-0.6-0.1-0.1c-0.6-0.9-1.1-1.9-1.6-2.9c-0.9-1.9,0.4,3-0.1-0.8c-0.1-0.9-0.5-1.8-0.6-2.7     c0.4,3,0.2-0.9,0.2-1.6c-0.1-10.4,0-20.9,0-31.3c0-5.2,0-10.5,0-15.7c0-1.2,0-2.5,0-3.7c0-0.2,0-0.4,0-0.6c0-0.4,0.2-3.1-0.2-0.2     c0.2-1.3,0.6-2.6,1-3.9c-0.9,3.3,1.9-3.2,1-1.9c-1.2,1.7,1.4-1.5,1.4-1.5c0.6-0.6,1.3-1.2,1.9-1.8c-2.3,1.8,0.1,0,0.8-0.2     c0.8-0.3,3.4-1.1,0.7-0.4c0.9-0.2,1.7-0.5,2.6-0.7c3.6-0.9-2.3-0.2,1.5-0.1c1.9,0.1,3.7,0,5.6,0c21.8,0,43.5,0,65.3,0     c1.9,0,3.7,0,5.6,0c8.1,0,15-6.9,15-15c0-2.9,0.1-5.7,0.4-8.6c0.2-2.4-0.4,2.3,0-0.1c0.1-0.7,0.2-1.3,0.4-2     c0.4-2,0.9-3.9,1.4-5.8c0.4-1.5,0.9-3,1.4-4.4c0.3-0.8,0.6-1.6,0.9-2.5c-1.1,2.6-0.2,0.5,0.1,0c1.6-3.1,3.2-6.2,5.2-9.1     c0.5-0.8,3.4-4.4,1.5-2.2c1-1.2,1.9-2.3,3-3.4c1-1.1,2.1-2.2,3.2-3.2c0.6-0.6,1.3-1.2,1.9-1.7c0.3-0.2,3-2.5,1.5-1.3     c-1.1,0.9,2.1-1.5,2.7-1.9c1.4-1,2.9-1.9,4.4-2.7c1.3-0.8,2.7-1.4,4-2.1c0.4-0.2,2.9-1.3,1.2-0.6c-1.8,0.8,1.5-0.6,1.9-0.7     c3.1-1.1,6.3-2,9.6-2.7c0.9-0.2,5-0.8,2-0.4c2.1-0.2,4.1-0.4,6.2-0.4c3-0.1,6,0.1,9,0.3c0.6,0,2.9,0.5,0.1,0     c0.7,0.1,1.3,0.2,2,0.3c2,0.4,3.9,0.8,5.9,1.4c1.5,0.4,3,0.9,4.4,1.4c0.8,0.3,1.7,0.6,2.5,0.9c2.2,0.8-2-1,0,0     c3.1,1.6,6.2,3.1,9.1,5.1c1.3,0.8,2.5,1.7,3.7,2.6c-2.5-1.9,1.5,1.4,1.9,1.8c2.6,2.3,4.9,4.9,7.1,7.5c-1.9-2.2,1,1.4,1.5,2.2     c1.1,1.6,2.1,3.3,3.1,5c1,1.7,1.8,3.5,2.6,5.3c-1.3-2.7,0.6,1.7,0.9,2.5c1.3,3.8,2.2,7.7,2.9,11.7c-0.5-3,0.1,1.8,0.2,2.8     c0.1,1.7,0.1,3.4,0.1,5.2c0,8.1,6.9,15,15,15c25.2,0,50.4-0.2,75.6,0c0.7,0,1.5,0,2.2,0c-2.6,0,0.9,0.3,2.1,0.5     c1.6,0.4-0.2-0.2-0.5-0.3c1,0.4,1.9,1.1,2.9,1.6c1.4,0.7-0.1-0.2-0.4-0.4c0.7,0.5,1.3,1.1,1.9,1.8c0.6,0.6,1.2,1.3,1.8,1.9     c-1-1.2-0.6-0.9-0.1,0.2c0.3,0.6,0.6,1.2,0.9,1.8c1,1.9-0.5-2-0.1,0.1c0.2,0.9,0.5,1.7,0.6,2.6     C669.5,189.6,668.9,183.8,669,188.1c0.2,7.8,6.7,15.4,15,15c7.9-0.4,15.2-6.6,15-15c-0.5-17.9-11.8-33.7-29.2-39     c-6.3-1.9-12.9-1.6-19.4-1.6c-17.6,0-35.2,0-52.8,0c-5.2,0-10.4,0-15.7,0c5,5,10,10,15,15c0-36.4-22.5-68.4-56.5-81.1     c-32.7-12.2-71.9-1.3-93.8,25.7C433.9,123,427,142.1,427,162.5c5-5,10-10,15-15c-20,0-39.9,0-59.9,0c-8.8,0-18.7-0.9-27.3,1.5     c-18.8,5.2-29.8,22.5-29.8,41.4c0,11.3,0,22.5,0,33.8c0,11.9-0.9,23.7,4.3,34.8c6.7,14.2,21.8,22.3,37.1,22.5c3.8,0,7.7,0,11.5,0     c43,0,86,0,129,0c44.9,0,89.7,0,134.6,0c15.7,0,30.5,1,43.5-10.1c8.9-7.6,13.6-18.9,13.8-30.5c0.1-2.7,0-5.5,0-8.2     c0-12.1,0-24.2,0-36.3c0-2.7,0-5.5,0-8.2c0-7.8-6.9-15.4-15-15C675.9,173.5,669,179.7,669,188.1z"/></g></g></g></svg>