<svg height="300px" width="300px" fill="#000000" xmlns="http://www.w3.org/2000/svg" xmlns:xlink="http://www.w3.org/1999/xlink" version="1.1" x="0px" y="0px" viewBox="0 0 100 100" enable-background="new 0 0 100 100" xml:space="preserve"><g><polygon points="85,55 85,20 70,5 15,5 15,95 85,95 85,80 80,80 80,90 20,90 20,10 65,10 65,25 80,25 80,55  "/></g><g><g><path d="M51.167,72.368h6.265v2.769h-9.864v-14.93h3.599V72.368z"/><path d="M70.845,67.979c0,1.456-0.27,2.745-0.81,3.866s-1.308,1.983-2.302,2.589c-0.995,0.604-2.128,0.907-3.399,0.907    s-2.399-0.292-3.384-0.877c-0.984-0.584-1.752-1.42-2.302-2.507c-0.551-1.087-0.839-2.334-0.867-3.742v-0.841    c0-1.463,0.268-2.754,0.805-3.871c0.536-1.118,1.305-1.98,2.307-2.589s2.142-0.913,3.42-0.913c1.265,0,2.393,0.301,3.384,0.902    s1.762,1.458,2.312,2.568c0.55,1.111,0.829,2.385,0.835,3.82V67.979z M67.184,67.354c0-1.483-0.248-2.61-0.743-3.379    c-0.496-0.77-1.205-1.153-2.128-1.153c-1.805,0-2.758,1.354-2.861,4.061l-0.01,1.097c0,1.463,0.243,2.588,0.728,3.374    s1.207,1.179,2.164,1.179c0.909,0,1.61-0.386,2.102-1.158s0.742-1.884,0.749-3.333V67.354z"/><path d="M84.426,73.291c-0.554,0.615-1.364,1.111-2.43,1.487s-2.235,0.563-3.507,0.563c-1.955,0-3.517-0.598-4.686-1.794    s-1.794-2.861-1.876-4.994l-0.01-1.292c0-1.47,0.26-2.753,0.779-3.851c0.52-1.097,1.263-1.94,2.23-2.532    c0.967-0.591,2.086-0.887,3.358-0.887c1.859,0,3.303,0.425,4.333,1.276c1.028,0.851,1.628,2.121,1.799,3.81H80.95    c-0.123-0.834-0.39-1.429-0.8-1.784s-0.991-0.533-1.743-0.533c-0.902,0-1.6,0.383-2.092,1.148s-0.742,1.859-0.749,3.281v0.902    c0,1.49,0.254,2.609,0.764,3.357c0.509,0.749,1.311,1.123,2.405,1.123c0.937,0,1.634-0.208,2.092-0.625v-2.317h-2.502v-2.472    h6.101V73.291z"/></g></g></svg>