<svg height="300px" width="300px" fill="#000000" xmlns="http://www.w3.org/2000/svg" viewBox="0 0 64 64" x="0px" y="0px"><title>Artboard 12</title><g data-name="Layer 3"><path d="M48,24h7a1,1,0,0,0,1-1V12a1,1,0,0,0-1-1H48a1,1,0,0,0-1,1V23A1,1,0,0,0,48,24Zm1-11h5v9H49Z"/><path d="M35,24h7a1,1,0,0,0,1-1V12a1,1,0,0,0-1-1H35a1,1,0,0,0-1,1V23A1,1,0,0,0,35,24Zm1-11h5v9H36Z"/><path d="M22,24h7a1,1,0,0,0,1-1V12a1,1,0,0,0-1-1H22a1,1,0,0,0-1,1V23A1,1,0,0,0,22,24Zm1-11h5v9H23Z"/><path d="M9,24h7a1,1,0,0,0,1-1V12a1,1,0,0,0-1-1H9a1,1,0,0,0-1,1V23A1,1,0,0,0,9,24Zm1-11h5v9H10Z"/><path d="M62,8H2A1,1,0,0,0,1,9v9a1,1,0,0,0,1,1,1,1,0,0,1,0,2,1,1,0,0,0-1,1v7a1,1,0,0,0,1,1H24a1,1,0,0,0,1-1V27h1v2a1,1,0,0,0,1,1H62a1,1,0,0,0,1-1V22a1,1,0,0,0-1-1,1,1,0,0,1,0-2,1,1,0,0,0,1-1V9A1,1,0,0,0,62,8ZM23,28H3V27H23Zm38,0H28V27H61Zm0-10.83a3,3,0,0,0,0,5.66V25H3V22.83a3,3,0,0,0,0-5.66V10H61Z"/><path d="M48,50h7a1,1,0,0,0,1-1V38a1,1,0,0,0-1-1H48a1,1,0,0,0-1,1V49A1,1,0,0,0,48,50Zm1-11h5v9H49Z"/><path d="M35,50h7a1,1,0,0,0,1-1V38a1,1,0,0,0-1-1H35a1,1,0,0,0-1,1V49A1,1,0,0,0,35,50Zm1-11h5v9H36Z"/><path d="M22,50h7a1,1,0,0,0,1-1V38a1,1,0,0,0-1-1H22a1,1,0,0,0-1,1V49A1,1,0,0,0,22,50Zm1-11h5v9H23Z"/><path d="M9,50h7a1,1,0,0,0,1-1V38a1,1,0,0,0-1-1H9a1,1,0,0,0-1,1V49A1,1,0,0,0,9,50Zm1-11h5v9H10Z"/><path d="M62,34H2a1,1,0,0,0-1,1v9a1,1,0,0,0,1,1,1,1,0,0,1,0,2,1,1,0,0,0-1,1v7a1,1,0,0,0,1,1H24a1,1,0,0,0,1-1V53h1v2a1,1,0,0,0,1,1H62a1,1,0,0,0,1-1V48a1,1,0,0,0-1-1,1,1,0,0,1,0-2,1,1,0,0,0,1-1V35A1,1,0,0,0,62,34ZM23,54H3V53H23Zm38,0H28V53H61Zm0-10.83a3,3,0,0,0,0,5.66V51H3V48.83a3,3,0,0,0,0-5.66V36H61Z"/></g></svg>