<svg height="300px" width="300px" fill="#000000" xmlns:x="http://ns.adobe.com/Extensibility/1.0/" xmlns:i="http://ns.adobe.com/AdobeIllustrator/10.0/" xmlns:graph="http://ns.adobe.com/Graphs/1.0/" xmlns="http://www.w3.org/2000/svg" xmlns:xlink="http://www.w3.org/1999/xlink" version="1.1" x="0px" y="0px" viewBox="0 0 100 100" enable-background="new 0 0 100 100" xml:space="preserve"><metadata><sfw xmlns="http://ns.adobe.com/SaveForWeb/1.0/"><slices/><sliceSourceBounds width="1449" height="1446.4" y="-1446.7" x="0.5" bottomLeftOrigin="true"/></sfw></metadata><path d="M7.6,80h42.6c1.4,0,2.5-1.1,2.5-2.5S51.6,75,50.2,75H7.6c-1,0-1.9-0.8-1.9-1.9V30.5h77.5v12.2c0,1.4,1.1,2.5,2.5,2.5  s2.5-1.1,2.5-2.5V15.9c0-3.8-3.1-6.9-6.9-6.9H7.6c-3.8,0-6.9,3.1-6.9,6.9v57.2C0.7,76.9,3.8,80,7.6,80z M7.6,14h73.7  c1,0,1.9,0.8,1.9,1.9v9.6H5.7v-9.6C5.7,14.9,6.6,14,7.6,14z M92.9,53.7c-4.1-4.1-9.6-6.4-15.4-6.4c-5.8,0-11.3,2.3-15.4,6.4  c-4.1,4.1-6.4,9.6-6.4,15.4c0,5.8,2.3,11.3,6.4,15.4c4.1,4.1,9.6,6.4,15.4,6.4c5.8,0,11.3-2.3,15.4-6.4  C101.4,76.1,101.4,62.2,92.9,53.7z M89.4,81.1C86.2,84.2,82,86,77.5,86c-4.5,0-8.7-1.8-11.9-4.9c-3.2-3.2-4.9-7.4-4.9-11.9  s1.8-8.7,4.9-11.9c3.2-3.2,7.4-4.9,11.9-4.9c4.5,0,8.7,1.8,11.9,4.9c3.2,3.2,4.9,7.4,4.9,11.9S92.5,77.9,89.4,81.1z M84.3,65.8  L81,69.2l3.3,3.3c1,1,1,2.6,0,3.5c-0.5,0.5-1.1,0.7-1.8,0.7s-1.3-0.2-1.8-0.7l-3.3-3.3L74.1,76c-0.5,0.5-1.1,0.7-1.8,0.7  s-1.3-0.2-1.8-0.7c-1-1-1-2.6,0-3.5l3.3-3.3l-3.3-3.3c-1-1-1-2.6,0-3.5c1-1,2.6-1,3.5,0l3.3,3.3l3.3-3.3c1-1,2.6-1,3.5,0  C85.3,63.3,85.3,64.9,84.3,65.8z M18.1,19.8c0-1.6,1.3-2.8,2.8-2.8s2.8,1.3,2.8,2.8c0,1.6-1.3,2.8-2.8,2.8S18.1,21.3,18.1,19.8z   M27.5,19.8c0-1.6,1.3-2.8,2.8-2.8s2.8,1.3,2.8,2.8c0,1.6-1.3,2.8-2.8,2.8S27.5,21.3,27.5,19.8z M8.7,19.8c0-1.6,1.3-2.8,2.8-2.8  c1.6,0,2.8,1.3,2.8,2.8c0,1.6-1.3,2.8-2.8,2.8C10,22.6,8.7,21.3,8.7,19.8z"/></svg>