<svg height="300px" width="300px" fill="#000000" xmlns:dc="http://purl.org/dc/elements/1.1/" xmlns:cc="http://creativecommons.org/ns#" xmlns:rdf="http://www.w3.org/1999/02/22-rdf-syntax-ns#" xmlns:svg="http://www.w3.org/2000/svg" xmlns="http://www.w3.org/2000/svg" xmlns:sodipodi="http://sodipodi.sourceforge.net/DTD/sodipodi-0.dtd" xmlns:inkscape="http://www.inkscape.org/namespaces/inkscape" version="1.1" x="0px" y="0px" viewBox="0 0 100 100"><g transform="translate(0,-952.36218)"><path style="text-indent:0;text-transform:none;direction:ltr;block-progression:tb;baseline-shift:baseline;color:#000000;enable-background:accumulate;" d="M 7.6875,14 C 6.2236588,14.15343 4.9921284,15.528161 5,17 l 0,66 c 1.571e-4,1.570753 1.4292466,2.999843 3,3 l 84,0 c 1.570753,-1.57e-4 2.999843,-1.429247 3,-3 L 95,17 C 94.999843,15.429247 93.570753,14.000157 92,14 63.902841,14 35.762392,14 7.6875,14 z M 11,20 l 78,0 0,10 -78,0 z m 56.6875,2 c -1.570984,0.08155 -2.926091,1.585307 -2.84427,3.156277 C 64.925051,26.727247 66.429044,28.082094 68,28 l 4,0 c 1.584938,0.02241 3.042726,-1.414904 3.042726,-3 0,-1.585096 -1.457788,-3.022415 -3.042726,-3 -1.421536,-1.38e-4 -2.916791,0 -4.3125,0 z m 12,0 c -1.570984,0.08155 -2.926091,1.585307 -2.84427,3.156277 C 76.925051,26.727247 78.429044,28.082094 80,28 l 4,0 c 1.584938,0.02241 3.042726,-1.414904 3.042726,-3 0,-1.585096 -1.457788,-3.022415 -3.042726,-3 -1.421536,-1.38e-4 -2.916791,0 -4.3125,0 z M 11,36 l 78,0 0,44 -78,0 z m 37,3 c -9.905598,0 -18,8.0943 -18,18 0,9.9055 8.094407,18 18,18 9.905592,0 18,-8.0945 18,-18 0,-3.273337 -0.89772,-6.338479 -2.4375,-9 L 67,48 c 1.584938,0.02242 3.042726,-1.414904 3.042726,-3 0,-1.585096 -1.457788,-3.022415 -3.042726,-3 -3.422829,-2.6e-5 -6.914996,0 -10.3125,0 -1.246929,0.127861 -2.357245,1.119215 -2.625,2.34375 l -2,9 c -0.33543,1.538071 0.758804,3.242693 2.296875,3.578124 1.538072,0.33543 3.242695,-0.758803 3.578125,-2.296874 L 58.625,51.46875 C 59.49525,53.131378 60,54.987975 60,57 60,63.6629 54.66297,69 48,69 41.337029,69 36,63.6629 36,57 c 0,-6.6631 5.337034,-12 12,-12 1.584938,0.02242 3.042726,-1.414904 3.042726,-3 0,-1.585096 -1.457788,-3.022415 -3.042726,-3 z" transform="translate(0,952.36218)" fill="#000000" fill-opacity="1" stroke="none" marker="none" visibility="visible" display="inline" overflow="visible"/></g></svg>