<svg height="300px" width="300px" fill="#000000" xmlns="http://www.w3.org/2000/svg" data-name="Layer 1" viewBox="0 0 100 100" x="0px" y="0px"><title>Artboard 21</title><path d="M83.81,72.08A11.72,11.72,0,0,1,72.09,83.8h0a2.5,2.5,0,0,0,0,5h0A16.72,16.72,0,0,0,88.81,72.08a2.5,2.5,0,0,0-5,0Z"/><path d="M97,69.93a2.5,2.5,0,0,0-2.5,2.5A22.06,22.06,0,0,1,72.43,94.49h0a2.5,2.5,0,0,0,0,5h0A27.06,27.06,0,0,0,99.5,72.43,2.5,2.5,0,0,0,97,69.93Z"/><path d="M17.89,97.26a4.83,4.83,0,0,0,3.43-1.42L41.8,75.36a4.85,4.85,0,0,0,0-6.85L37.29,64l3.65-3.65L49.57,69a2.47,2.47,0,0,0,.25.2,26,26,0,0,0,1.07,14.4A5.25,5.25,0,0,0,55.8,87a5.18,5.18,0,0,0,3.66-1.52h0l26-26a5.17,5.17,0,0,0,1.4-4.78,5.24,5.24,0,0,0-3.31-3.8,26,26,0,0,0-14.4-1.07,2.46,2.46,0,0,0-.2-.25l-8.62-8.62L64,37.3l4.51,4.51a4.85,4.85,0,0,0,6.85,0L95.84,21.32a4.84,4.84,0,0,0,0-6.85L83.3,1.93a4.84,4.84,0,0,0-6.85,0L56,22.41a4.85,4.85,0,0,0,0,6.85l4.51,4.51-3.65,3.65-8.5-8.5a7.39,7.39,0,0,0-10.45,0l-2.78,2.78-8.52-8.52A2.5,2.5,0,1,0,23,26.71l8.52,8.51-2.64,2.64a7.39,7.39,0,0,0,0,10.45l8.5,8.5-3.65,3.65L29.25,56a4.85,4.85,0,0,0-6.85,0L1.92,76.45a4.85,4.85,0,0,0,0,6.85L14.47,95.84A4.83,4.83,0,0,0,17.89,97.26ZM72,13.49,84.28,25.81l-4.43,4.43L67.53,17.91Zm7.92-7.92L92.2,17.89l-4.38,4.38L75.49,10ZM64,21.45,76.32,33.77l-4.38,4.38L59.61,25.83ZM81.85,55.57a.24.24,0,0,1,.17.18.17.17,0,0,1-.05.18l-26,26a.17.17,0,0,1-.18.05.25.25,0,0,1-.18-.17,20.61,20.61,0,0,1,4.56-21.71,20.31,20.31,0,0,1,14.39-5.88A21.09,21.09,0,0,1,81.85,55.57ZM31.75,43.1a2.38,2.38,0,0,1,.7-1.69l9-9a2.45,2.45,0,0,1,3.38,0L63.9,51.55A24.68,24.68,0,0,0,51.55,63.9l-19.1-19.1A2.38,2.38,0,0,1,31.75,43.1ZM17.91,67.53,30.24,79.85l-4.43,4.43L13.49,72Zm7.92-7.92L38.15,71.94l-4.38,4.38L21.45,64ZM10,75.49,22.28,87.82,17.89,92.2,5.57,79.87Z"/></svg>